<svg id="Layer_1" data-name="Layer 1" xmlns="http://www.w3.org/2000/svg" viewBox="0 0 69.69 72.27"><defs><style>.cls-1{font-size:16.49px;}.cls-1,.cls-2,.cls-3{fill:#231f20;}.cls-1,.cls-2{font-family:corona;}.cls-2{font-size:12px;}</style></defs><title>won_logo</title><text class="cls-1" transform="translate(0.12 20.73)">Women</text><text class="cls-2" transform="translate(28.73 38.77)">of</text><path class="cls-3" d="M455.55,212.33v-29h2.77l8.24,19.29V183.29h3.37v29h-2.58L459,192.5v19.83Z" transform="translate(-454.1 -140.39)"/><path class="cls-3" d="M472.91,212.33l6.17-29H483l6.2,29h-3.84L484,205h-5.92l-1.4,7.31Zm5.74-10.22h4.84L481.05,189Z" transform="translate(-454.1 -140.39)"/><path class="cls-3" d="M499,212.65a7.55,7.55,0,0,1-4.18-1.07,6.84,6.84,0,0,1-2.53-3,12.44,12.44,0,0,1-1-4.41l3.59-1a16.12,16.12,0,0,0,.48,3,5.25,5.25,0,0,0,1.24,2.35,3.12,3.12,0,0,0,2.4.91,3.08,3.08,0,0,0,2.39-.88,3.61,3.61,0,0,0,.8-2.52,5.24,5.24,0,0,0-.89-3.18,17.77,17.77,0,0,0-2.26-2.42l-4.88-4.3a8.29,8.29,0,0,1-2.12-2.74,8.92,8.92,0,0,1-.68-3.68,6.54,6.54,0,0,1,1.83-5,6.91,6.91,0,0,1,5-1.76,9.38,9.38,0,0,1,3,.45,5.29,5.29,0,0,1,2.18,1.38,6.89,6.89,0,0,1,1.4,2.35,13.19,13.19,0,0,1,.7,3.32l-3.44.93a14.59,14.59,0,0,0-.43-2.63,4,4,0,0,0-1.13-1.94,3.32,3.32,0,0,0-2.31-.74,3.24,3.24,0,0,0-2.35.81,3.17,3.17,0,0,0-.85,2.39,4.67,4.67,0,0,0,.45,2.18,6.55,6.55,0,0,0,1.45,1.76l4.92,4.3a15.45,15.45,0,0,1,2.9,3.43,8.63,8.63,0,0,1,1.26,4.71,7.32,7.32,0,0,1-.9,3.72,6.06,6.06,0,0,1-2.46,2.38A7.59,7.59,0,0,1,499,212.65Z" transform="translate(-454.1 -140.39)"/><path class="cls-3" d="M507.52,212.33l6.16-29h3.91l6.21,29H520L518.63,205h-5.92l-1.39,7.31Zm5.73-10.22h4.84L515.66,189Z" transform="translate(-454.1 -140.39)"/></svg>